<svg xmlns="http://www.w3.org/2000/svg" xmlns:xlink="http://www.w3.org/1999/xlink" width="192" zoomAndPan="magnify" viewBox="0 0 144 143.999998" height="192" preserveAspectRatio="xMidYMid meet" version="1.0"><defs><clipPath id="00ba81dbf2"><path d="M 29.597656 29.75 L 114.347656 29.75 L 114.347656 114.5 L 29.597656 114.5 Z M 29.597656 29.75 " clip-rule="nonzero"/></clipPath></defs><g clip-path="url(#00ba81dbf2)"><path fill="#fbfaf9" d="M 72.011719 29.78125 C 48.582031 29.78125 29.597656 48.769531 29.597656 72.199219 C 29.597656 93.242188 44.949219 110.722656 65.035156 114.027344 L 65.035156 85.273438 L 54.238281 85.273438 L 54.238281 72.675781 L 65.035156 72.675781 L 65.035156 63.53125 C 65.035156 53.617188 73.078125 46.894531 82.992188 46.894531 C 87.402344 46.894531 90.15625 47.554688 90.15625 47.554688 L 90.15625 58.132812 L 82.992188 58.132812 C 80.019531 58.132812 77.59375 60.558594 77.59375 63.53125 L 77.59375 72.675781 L 89.164062 72.675781 L 87.546875 85.273438 L 77.59375 85.273438 L 77.59375 114.210938 C 98.34375 111.457031 114.355469 93.683594 114.355469 72.199219 C 114.394531 48.769531 95.40625 29.78125 72.011719 29.78125 Z M 72.011719 29.78125 " fill-opacity="1" fill-rule="nonzero"/></g></svg>