<svg xmlns="http://www.w3.org/2000/svg" xmlns:xlink="http://www.w3.org/1999/xlink" width="192" zoomAndPan="magnify" viewBox="0 0 144 143.999998" height="192" preserveAspectRatio="xMidYMid meet" version="1.0"><path fill="#fbfaf9" d="M 66.433594 32.191406 C 47.375 34.300781 31.847656 49.679688 29.546875 68.710938 C 29.398438 69.90625 29.300781 71.105469 29.253906 72.308594 C 29.207031 73.511719 29.214844 74.714844 29.273438 75.917969 C 29.328125 77.121094 29.4375 78.320312 29.597656 79.511719 C 29.757812 80.707031 29.96875 81.890625 30.230469 83.066406 C 30.492188 84.242188 30.804688 85.40625 31.164062 86.554688 C 31.527344 87.703125 31.9375 88.835938 32.394531 89.949219 C 32.851562 91.0625 33.359375 92.15625 33.910156 93.226562 C 34.460938 94.296875 35.058594 95.339844 35.699219 96.359375 C 36.34375 97.378906 37.027344 98.371094 37.753906 99.332031 C 38.480469 100.292969 39.246094 101.21875 40.050781 102.113281 C 40.859375 103.007812 41.699219 103.867188 42.582031 104.691406 C 43.460938 105.515625 44.375 106.296875 45.320312 107.042969 C 46.265625 107.785156 47.246094 108.488281 48.25 109.148438 C 49.257812 109.808594 50.292969 110.425781 51.351562 111 C 52.414062 111.570312 53.496094 112.097656 54.601562 112.574219 C 55.707031 113.054688 56.828125 113.484375 57.972656 113.867188 C 60.074219 114.203125 60.746094 112.902344 60.746094 111.765625 L 60.746094 104.664062 C 49.105469 107.191406 46.625 99.035156 46.625 99.035156 C 44.699219 94.15625 41.960938 92.855469 41.960938 92.855469 C 38.136719 90.25 42.257812 90.335938 42.257812 90.335938 C 46.460938 90.632812 48.6875 94.664062 48.6875 94.664062 C 52.34375 101.050781 58.519531 99.160156 60.917969 98.152344 C 61.292969 95.417969 62.402344 93.570312 63.5625 92.519531 C 54.21875 91.46875 44.441406 87.855469 44.441406 71.84375 C 44.441406 67.179688 46.039062 63.441406 48.769531 60.457031 C 48.347656 59.40625 46.875 55.035156 49.1875 49.363281 C 49.1875 49.363281 52.71875 48.226562 60.746094 53.648438 C 64.1875 52.722656 67.6875 52.261719 71.25 52.261719 C 74.8125 52.261719 78.316406 52.722656 81.757812 53.648438 C 89.789062 48.226562 93.316406 49.363281 93.316406 49.363281 C 95.625 55.035156 94.152344 59.40625 93.734375 60.457031 C 96.464844 63.429688 98.0625 67.179688 98.0625 71.84375 C 98.0625 87.894531 88.226562 91.425781 78.859375 92.476562 C 80.371094 93.78125 81.757812 96.34375 81.757812 100.25 L 81.757812 111.765625 C 81.757812 112.902344 82.429688 114.246094 84.574219 113.867188 C 85.792969 113.460938 86.992188 112.996094 88.167969 112.476562 C 89.34375 111.960938 90.492188 111.386719 91.617188 110.765625 C 92.742188 110.140625 93.835938 109.46875 94.898438 108.742188 C 95.960938 108.019531 96.988281 107.246094 97.980469 106.429688 C 98.972656 105.613281 99.921875 104.75 100.835938 103.84375 C 101.75 102.9375 102.617188 101.992188 103.445312 101.007812 C 104.269531 100.023438 105.046875 99.003906 105.78125 97.945312 C 106.511719 96.890625 107.195312 95.800781 107.828125 94.683594 C 108.460938 93.5625 109.042969 92.417969 109.570312 91.246094 C 110.097656 90.070312 110.570312 88.878906 110.988281 87.664062 C 111.40625 86.445312 111.765625 85.214844 112.070312 83.964844 C 112.378906 82.714844 112.625 81.457031 112.8125 80.183594 C 113.003906 78.914062 113.132812 77.636719 113.207031 76.351562 C 113.277344 75.066406 113.292969 73.785156 113.246094 72.5 C 113.203125 71.214844 113.097656 69.933594 112.933594 68.660156 C 112.773438 67.382812 112.550781 66.117188 112.273438 64.863281 C 111.996094 63.609375 111.660156 62.367188 111.265625 61.144531 C 110.875 59.921875 110.425781 58.714844 109.921875 57.53125 C 109.421875 56.351562 108.863281 55.191406 108.257812 54.058594 C 107.648438 52.925781 106.988281 51.824219 106.277344 50.753906 C 105.566406 49.683594 104.808594 48.644531 104.003906 47.640625 C 103.199219 46.640625 102.351562 45.675781 101.457031 44.753906 C 100.5625 43.828125 99.628906 42.945312 98.65625 42.105469 C 97.683594 41.269531 96.671875 40.476562 95.625 39.730469 C 94.578125 38.984375 93.5 38.285156 92.386719 37.640625 C 91.277344 36.992188 90.140625 36.398438 88.972656 35.855469 C 87.808594 35.3125 86.621094 34.824219 85.410156 34.386719 C 84.199219 33.953125 82.972656 33.578125 81.726562 33.253906 C 80.484375 32.933594 79.226562 32.667969 77.957031 32.464844 C 76.6875 32.257812 75.414062 32.109375 74.128906 32.019531 C 72.847656 31.929688 71.5625 31.898438 70.277344 31.929688 C 68.992188 31.957031 67.710938 32.042969 66.433594 32.191406 Z M 66.433594 32.191406 " fill-opacity="1" fill-rule="nonzero"/></svg>