<svg xmlns="http://www.w3.org/2000/svg" xmlns:xlink="http://www.w3.org/1999/xlink" width="192" zoomAndPan="magnify" viewBox="0 0 144 143.999998" height="192" preserveAspectRatio="xMidYMid meet" version="1.0"><defs><clipPath id="91636f77d2"><path d="M 29.75 29.75 L 114.5 29.75 L 114.5 114.5 L 29.75 114.5 Z M 29.75 29.75 " clip-rule="nonzero"/></clipPath></defs><g clip-path="url(#91636f77d2)"><path fill="#fbfaf9" d="M 54.59375 29.75 C 40.957031 29.75 29.75 40.941406 29.75 54.59375 L 29.75 89.398438 C 29.75 103.035156 40.941406 114.242188 54.59375 114.242188 L 89.398438 114.242188 C 103.035156 114.242188 114.242188 103.050781 114.242188 89.398438 L 114.242188 54.59375 C 114.242188 40.957031 103.050781 29.75 89.398438 29.75 Z M 54.59375 37.433594 L 89.398438 37.433594 C 98.894531 37.433594 106.5625 45.097656 106.5625 54.59375 L 106.5625 89.398438 C 106.5625 98.894531 98.894531 106.5625 89.398438 106.5625 L 54.59375 106.5625 C 45.097656 106.5625 37.433594 98.894531 37.433594 89.398438 L 37.433594 54.59375 C 37.433594 45.097656 45.097656 37.433594 54.59375 37.433594 Z M 94.679688 45.832031 C 92.746094 45.832031 91.199219 47.378906 91.199219 49.3125 C 91.199219 51.25 92.746094 52.792969 94.679688 52.792969 C 96.617188 52.792969 98.160156 51.25 98.160156 49.3125 C 98.160156 47.378906 96.617188 45.832031 94.679688 45.832031 Z M 71.996094 48.953125 C 59.320312 48.953125 48.953125 59.320312 48.953125 71.996094 C 48.953125 84.671875 59.320312 95.039062 71.996094 95.039062 C 84.671875 95.039062 95.039062 84.671875 95.039062 71.996094 C 95.039062 59.320312 84.671875 48.953125 71.996094 48.953125 Z M 71.996094 56.632812 C 80.53125 56.632812 87.359375 63.460938 87.359375 71.996094 C 87.359375 80.53125 80.53125 87.359375 71.996094 87.359375 C 63.460938 87.359375 56.632812 80.53125 56.632812 71.996094 C 56.632812 63.460938 63.460938 56.632812 71.996094 56.632812 Z M 71.996094 56.632812 " fill-opacity="1" fill-rule="nonzero"/></g></svg>